<?xml version="1.0" encoding="UTF-8"?>
<svg id="Holesky_Faucet_Black_Logo" data-name="Holesky Faucet Black Logo" xmlns="http://www.w3.org/2000/svg" xmlns:xlink="http://www.w3.org/1999/xlink" viewBox="0 0 1230.12 400">
  <defs>
    <style>
      .cls-1 {
        fill: url(#linear-gradient);
      }

      .cls-1, .cls-2, .cls-3, .cls-4 {
        stroke-width: 0px;
      }

      .cls-2 {
        fill: url(#linear-gradient-2);
      }

      .cls-3 {
        fill: url(#linear-gradient-3);
      }

      .cls-4 {
        fill: #fff;
      }
    </style>
    <linearGradient id="linear-gradient" x1="73.14" y1="-832.7" x2="139.86" y2="-718.2" gradientTransform="translate(0 -598.04) scale(1 -1)" gradientUnits="userSpaceOnUse">
      <stop offset="0" stop-color="#fff" stop-opacity=".25"/>
      <stop offset="1" stop-color="#fff"/>
    </linearGradient>
    <linearGradient id="linear-gradient-2" x1="179.32" y1="-841.89" x2="47.03" y2="-841.81" xlink:href="#linear-gradient"/>
    <linearGradient id="linear-gradient-3" x1="135.88" y1="-746.33" x2="201.23" y2="-859.61" xlink:href="#linear-gradient"/>
  </defs>
  <path class="cls-1" d="M46.18,205.9h0c4.39,17.34,18.58,30.78,37.88,34.57-4.56-4.77-6.05-12.29-2.29-18.8,0,0,35.04-60.29,36.42-61.94.02-.03.05-.06.07-.09,8.95-12.49,25.86-21.11,45.08-21.11,3.64,0,7.18.3,10.6.87l-1.19-1.4c-25.86-28.61-74.11-25.18-94.6,10.31l-27.27,47.23c-2.32,4.02-4.69,10.32-4.7,10.35Z"/>
  <path class="cls-2" d="M182.78,245.48c0-6.22-1.21-12.21-3.45-17.84-1.41,7.64-7.46,13.98-15.53,13.98h-67.64l-2.02-.09h-.02c-24.35-.48-42.83-15.4-47.95-35.62h0s0,0,0,0c-13,36.76,16.82,75.75,54.75,75.75h57.71c3.33,0,9.17-.82,9.38-.84,0,0,0,0,0,0,9.26-9.82,14.76-22.06,14.76-35.33h0Z"/>
  <path class="cls-3" d="M207.5,195.61l-27.3-47.29c-1.86-3.22-6.24-8.89-6.25-8.9-3.42-.57-6.97-.87-10.6-.87-19.23,0-36.13,8.61-45.09,21.11,0,0-.01.01-.02.02,7.09-6.63,19.26-5.61,24.51,3.48l33.84,58.61c.07.13,1.71,3.44,1.71,3.44l.54,1.22c2.56,5.98,3.96,12.39,3.96,19.07,0,13.27-5.5,25.51-14.77,35.33,0,0,0,0,0,0,38.04-6.68,59.81-50,39.48-85.21Z"/>
  <path class="cls-4" d="M279.59,196.74c-12.39,27.01-22.79,51.26-23.64,53.22-1.08,2.8.2,3.38,8.68,3.38h9.89l5.84-12.6c3.04-6.75,9.12-20.26,13.27-29.78,2.69-6.46,5.73-12.76,9.12-18.88.74-.88,7.67,12.63,15.67,29.51l14.12,30.83,10.13.68c5.67.44,10.13.2,10.13-.44s-3.38-8.68-20.63-45.82c-3.38-7.19-10.67-23.27-16.51-35.86-5.84-12.59-11.31-23.03-12.16-23.23-.85-.2-11.75,21.61-23.91,49Z"/>
  <path class="cls-4" d="M376.67,187.17c0,44.74,1.32,50.65,12.83,60.38,5.84,5,9.12,5.88,19.99,5.88,15.19,0,23.43-3.71,30.59-13.51,4.79-6.75,5-9.12,5.67-50.18l.98-42.75h-20.09v80.13l-5.67,4.36c-7.36,5.64-11.72,5.64-19.11,0l-5.77-4.36v-80.13h-19.42v40.18Z"/>
  <path class="cls-4" d="M472.23,156.74v9.79h32.58v86.88h21.74v-86.88h32.55v-19.55h-86.88v9.76Z"/>
  <path class="cls-4" d="M628.64,156.74v9.79h9.76c5.6.07,11.14,1.22,16.31,3.38,6.84,3.87,12.24,9.87,15.37,17.08,3.13,7.21,3.83,15.25,1.99,22.89-2.47,9.86-15.97,22.89-26.1,25.19-5,1-10.16.89-15.11-.35-4.95-1.23-9.56-3.55-13.51-6.78-3.95-3.23-7.13-7.29-9.31-11.9-2.19-4.61-3.32-9.64-3.33-14.74v-8.71h-19.52v10.13c.36,10.15,3.54,19.99,9.18,28.43,5.64,8.44,13.53,15.14,22.76,19.35,10.64,4.36,36.06,3.68,46.06-1.32,30.05-15.33,38.22-55.51,16.55-83.98-7.6-10.13-25.39-18.23-39.51-18.23h-11.52l-.07,9.76Z"/>
  <path class="cls-4" d="M735.27,196.28c-7.4,27.35-14.11,51.26-14.55,53.22-1.08,3.38.24,3.92,8.27,3.92h9.55l6.08-23.64c3.38-12.83,6.92-24.55,7.8-26.07.88-1.52,5.88,7.39,12.39,22.79,5.88,14.15,11.95,25.63,13.51,25.63s7.6-11.48,13.67-25.63c6.75-15.19,11.72-24.51,12.8-22.79,1.08,1.72,4.15,13.24,7.63,26.07l6.28,23.64h9.59c7.83,0,9.35-.68,8.48-3.92-11.51-42.78-28.9-102.52-29.98-102.52s-7.16,13.68-14.11,30.39c-6.96,16.71-13.51,30.39-14.11,30.39s-6.96-13.68-13.91-30.39c-6.96-16.71-13.51-30.39-14.32-30.39s-7.66,22.15-15.06,49.3Z"/>
  <path class="cls-4" d="M890.36,185.41c-9.35,21.31-20.26,45.18-24.11,53.22l-6.96,14.79h20.83l13.51-29.99c7.4-16.31,14.11-30.39,14.79-31.27.67-.88,7.67,12.53,15.6,29.75l14.11,31.27,10.13.24c11.95,0,11.95,1.92-1.52-27.01-4.56-9.56-13.24-28.7-19.55-42.38-16.07-35.39-16.71-36.91-18.23-36.91-.81-.14-9.05,17.22-18.61,38.29Z"/>
  <path class="cls-4" d="M982.68,156.74v9.56l15.84.68,15.5.57.67,42.78.41,43.02h19.55v-86.81h32.58v-19.55h-84.55v9.76Z"/>
  <path class="cls-4" d="M1133.62,154.04c-1.52,3.88-10.87,24.75-20.63,46.26-9.76,21.51-19.35,42.34-20.87,46.02l-3.04,7.19h20.63l14.15-31.5c7.6-17.15,14.55-30.86,15.19-30.19.65.68,7.16,14.55,14.56,30.83l13.5,29.75,9.97.67c9.79.64,10.13.44,8.47-4.36-3.38-10.87-45.38-101.3-47.27-101.64-.74-.1-2.94,3.14-4.66,6.96Z"/>
</svg>